<?xml version="1.0" encoding="UTF-8" ?>
<svg xmlns="http://www.w3.org/2000/svg" viewBox="0 0 690.4 53.22"><defs><style>.cls-1{fill:#0c1e2d;}</style></defs><g id="Layer_2" data-name="Layer 2"><g id="Layer_1-2" data-name="Layer 1"><polygon class="cls-1" points="155.66 50.72 180.66 50.72 180.66 45.69 161.06 45.69 161.06 26.84 180.13 26.84 180.13 21.81 161.06 21.81 161.06 7.5 180.66 7.5 180.66 2.47 155.66 2.47 155.66 50.72"/><path class="cls-1" d="M568.13,50.72H574l5.84-13.66h20.62l5.69,13.66H612L590.35.16ZM582,32l8.25-19.34L598.32,32Z"/><path class="cls-1" d="M431.48,46.53q-7.87,0-9.84-8.87l-5.22,1.46a16,16,0,0,0,5.25,9.19,14.51,14.51,0,0,0,9.62,3.25,15.15,15.15,0,0,0,10.91-4.28,14,14,0,0,0,4.44-10.56,11.43,11.43,0,0,0-2.57-7.63q-2.54-3.09-8.35-5.65l-4.6-2q-6.83-3-6.83-7.25a6.89,6.89,0,0,1,2.29-5.32,8.14,8.14,0,0,1,5.71-2.12,8.42,8.42,0,0,1,4.6,1.16A11.87,11.87,0,0,1,440.54,12l4.29-2.78q-4.38-7.56-12.44-7.57a13.72,13.72,0,0,0-9.68,3.57,11.64,11.64,0,0,0-3.82,8.9,10.3,10.3,0,0,0,2.28,6.79,15.14,15.14,0,0,0,3,2.67A26.83,26.83,0,0,0,428.64,26L433,28a19.07,19.07,0,0,1,6.35,4,7.19,7.19,0,0,1,1.81,5,9,9,0,0,1-2.81,6.72A9.53,9.53,0,0,1,431.48,46.53Z"/><polygon class="cls-1" points="376.65 45.69 357.06 45.69 357.06 26.84 376.12 26.84 376.12 21.81 357.06 21.81 357.06 7.5 376.65 7.5 376.65 2.47 351.65 2.47 351.65 50.72 376.65 50.72 376.65 45.69"/><path class="cls-1" d="M208,29.12a12.93,12.93,0,0,0,8.78-4.06A12.85,12.85,0,0,0,220.11,16q0-6.46-4.35-10.16-4-3.37-12.59-3.37h-7.78V50.72h5.4V29.56h1.38l14.56,21.16h6.56Zm-7.19-4.31V7.5H204q10.78,0,10.78,8.52a8,8,0,0,1-2.71,6.55c-1.82,1.49-4.45,2.24-7.91,2.24Z"/><path class="cls-1" d="M67,50.72h5.84l5.85-13.66H99.29L105,50.72h5.91L89.2.16ZM80.85,32,89.1,12.69,97.17,32Z"/><path class="cls-1" d="M645.66,25.06A12.84,12.84,0,0,0,649,16q0-6.46-4.34-10.16-4-3.37-12.59-3.37h-7.79V50.72h5.41V29.56h1.38l14.56,21.16h6.56l-15.31-21.6A13,13,0,0,0,645.66,25.06Zm-16-.25V7.5h3.22q10.79,0,10.78,8.52A8,8,0,0,1,641,22.57c-1.81,1.49-4.45,2.24-7.9,2.24Z"/><polygon class="cls-1" points="690.4 7.5 690.4 2.47 665.4 2.47 665.4 50.72 690.4 50.72 690.4 45.69 670.81 45.69 670.81 26.84 689.87 26.84 689.87 21.81 670.81 21.81 670.81 7.5 690.4 7.5"/><polygon class="cls-1" points="296.25 13.53 333.84 52.88 333.84 2.47 328.43 2.47 328.43 39.84 290.84 0.44 290.84 50.72 296.25 50.72 296.25 13.53"/><rect class="cls-1" x="267.65" y="2.47" width="5.41" height="48.25"/><polygon class="cls-1" points="255.19 45.69 241.91 45.69 241.91 2.47 236.51 2.47 236.51 50.72 255.19 50.72 255.19 45.69"/><path class="cls-1" d="M552.88,32a32.68,32.68,0,0,1-.47,6.41,9.17,9.17,0,0,1-1.78,3.78,10.85,10.85,0,0,1-4.19,3.12,12.92,12.92,0,0,1-5.38,1.19,13.19,13.19,0,0,1-5.37-1.19,11.21,11.21,0,0,1-4.16-3.12,9.17,9.17,0,0,1-1.78-3.78,32.68,32.68,0,0,1-.47-6.41V2.47h-5.4v31a22.87,22.87,0,0,0,1,7.34,13.78,13.78,0,0,0,3.25,5.32,18.3,18.3,0,0,0,26,0,13.9,13.9,0,0,0,3.25-5.32,22.87,22.87,0,0,0,1-7.34v-31h-5.4Z"/><polygon class="cls-1" points="62.28 2.47 48.16 38.66 33.84 0 18.72 38.66 5.91 2.47 0 2.47 18.53 53.22 33.75 14.63 47.97 53.19 68.19 2.47 62.28 2.47"/><polygon class="cls-1" points="114.38 7.5 126.06 7.5 126.06 50.72 131.47 50.72 131.47 7.5 143.19 7.5 143.19 2.47 114.38 2.47 114.38 7.5"/><path class="cls-1" d="M507.22,35.75a22.69,22.69,0,0,0,1.63-8.84,24.05,24.05,0,0,0-8.22-18.66A25,25,0,0,0,466,9a24.2,24.2,0,0,0-7.37,17.72,23.54,23.54,0,0,0,8.12,18.31,25.05,25.05,0,0,0,31.47,1.78l4.07,4.32h6.84l-7.22-7.28A29.35,29.35,0,0,0,507.22,35.75ZM498.13,40l-8.32-8.73h-7L494.4,43.06a18.25,18.25,0,0,1-10.88,3.47A19.15,19.15,0,0,1,470,41a18.72,18.72,0,0,1-6-14.29,19.47,19.47,0,0,1,5.69-14.23,19.7,19.7,0,0,1,28,0,19.56,19.56,0,0,1,5.72,14.26A19.46,19.46,0,0,1,498.13,40Z"/></g></g></svg>
